<svg xmlns="http://www.w3.org/2000/svg" viewBox="0 0 800 450" width="800" height="450">
  <defs>
    <linearGradient id="bg" x1="0" y1="0" x2="1" y2="1">
      <stop offset="0%" stop-color="#f5f0e8"/><stop offset="100%" stop-color="#e8dcc8"/>
    </linearGradient>
  </defs>
  <rect width="800" height="450" fill="url(#bg)"/>
  <!-- 床 -->
  <rect x="0" y="340" width="800" height="110" fill="#d8cdb8"/>
  <!-- デスク -->
  <rect x="80" y="240" width="300" height="100" fill="#c8a870" rx="4"/>
  <rect x="80" y="336" width="20" height="60" fill="#b09060" rx="3"/>
  <rect x="360" y="336" width="20" height="60" fill="#b09060" rx="3"/>
  <!-- チェア -->
  <rect x="160" y="180" width="140" height="70" rx="8" fill="#304050"/>
  <rect x="220" y="246" width="20" height="50" fill="#304050" rx="2"/>
  <rect x="190" y="292" width="80" height="8" rx="4" fill="#304050"/>
  <!-- モニター on desk -->
  <rect x="150" y="170" width="140" height="90" rx="6" fill="#1a2030"/>
  <rect x="158" y="178" width="124" height="74" rx="3" fill="#2a3a50"/>
  <rect x="216" y="256" width="8" height="20" fill="#1a2030"/>
  <rect x="202" y="274" width="36" height="6" rx="3" fill="#1a2030"/>
  <!-- 収納棚 -->
  <rect x="460" y="120" width="260" height="220" rx="6" fill="#d4b880"/>
  <rect x="468" y="128" width="244" height="40" rx="2" fill="#c8aa6a"/>
  <rect x="468" y="176" width="244" height="40" rx="2" fill="#c8aa6a"/>
  <rect x="468" y="224" width="244" height="40" rx="2" fill="#c8aa6a"/>
  <rect x="468" y="272" width="244" height="40" rx="2" fill="#c8aa6a"/>
  <!-- 棚の中身 -->
  <rect x="476" y="132" width="30" height="30" rx="2" fill="#007080" opacity="0.7"/>
  <rect x="512" y="132" width="30" height="30" rx="2" fill="#00aacc" opacity="0.7"/>
  <rect x="548" y="132" width="30" height="30" rx="2" fill="#f07700" opacity="0.6"/>
  <rect x="476" y="180" width="30" height="30" rx="2" fill="#4a8090" opacity="0.7"/>
  <rect x="512" y="180" width="60" height="30" rx="2" fill="#c0d8e8"/>
  <!-- ラベル -->
  <rect x="0" y="390" width="800" height="60" fill="rgba(0,112,128,0.75)"/>
  <text x="400" y="422" font-family="sans-serif" font-size="16" fill="white" text-anchor="middle" font-weight="bold">オフィス備品</text>
</svg>
