<svg xmlns="http://www.w3.org/2000/svg" viewBox="0 0 800 450" width="800" height="450">
  <defs>
    <linearGradient id="bg" x1="0" y1="0" x2="1" y2="1">
      <stop offset="0%" stop-color="#f0fce8"/><stop offset="100%" stop-color="#d8f0c8"/>
    </linearGradient>
  </defs>
  <rect width="800" height="450" fill="url(#bg)"/>
  <!-- テーブル -->
  <rect x="100" y="280" width="600" height="60" fill="#c8a870" rx="6"/>
  <rect x="140" y="336" width="20" height="50" fill="#b09060" rx="3"/>
  <rect x="640" y="336" width="20" height="50" fill="#b09060" rx="3"/>
  <!-- 野菜ボックス -->
  <rect x="160" y="200" width="120" height="80" rx="6" fill="#e8f4d0"/>
  <rect x="160" y="200" width="120" height="80" rx="6" fill="none" stroke="#90c060" stroke-width="2"/>
  <!-- 野菜アイコン -->
  <ellipse cx="195" cy="240" rx="18" ry="22" fill="#e85030"/><!-- トマト -->
  <rect x="192" y="218" width="6" height="8" fill="#40a030" rx="1"/>
  <ellipse cx="235" cy="245" rx="22" ry="16" fill="#f0c030"/><!-- レモン -->
  <path d="M170 255 Q185 235 200 255 Q215 235 230 255 Q245 235 260 255" stroke="#40a030" stroke-width="3" fill="none" stroke-linecap="round"/><!-- ハーブ -->
  <!-- フルーツボックス -->
  <rect x="320" y="190" width="140" height="90" rx="6" fill="#fff0e0"/>
  <rect x="320" y="190" width="140" height="90" rx="6" fill="none" stroke="#f0a030" stroke-width="2"/>
  <ellipse cx="360" cy="232" rx="22" ry="22" fill="#f07030"/><!-- オレンジ -->
  <ellipse cx="410" cy="228" rx="20" ry="24" fill="#f0e030"/><!-- バナナ風 -->
  <path d="M398 210 Q415 200 430 215" stroke="#c0a010" stroke-width="3" fill="none" stroke-linecap="round"/>
  <!-- 飲み物 -->
  <rect x="510" y="200" width="100" height="80" rx="6" fill="#e0f0fc"/>
  <rect x="510" y="200" width="100" height="80" rx="6" fill="none" stroke="#80c0e0" stroke-width="2"/>
  <rect x="530" y="210" width="24" height="60" rx="4" fill="#60b0d8"/>
  <rect x="562" y="215" width="24" height="55" rx="4" fill="#80c8e8"/>
  <ellipse cx="542" cy="210" rx="12" ry="5" fill="#40a0c8"/>
  <ellipse cx="574" cy="215" rx="12" ry="5" fill="#60b8d8"/>
  <!-- ロゴ的なもの -->
  <rect x="300" y="130" width="200" height="44" rx="8" fill="#40a830"/>
  <text x="400" y="158" font-family="sans-serif" font-size="14" font-weight="900" fill="white" text-anchor="middle">オフィスでやさい</text>
  <!-- ラベル -->
  <rect x="0" y="390" width="800" height="60" fill="rgba(0,112,128,0.75)"/>
  <text x="400" y="422" font-family="sans-serif" font-size="16" fill="white" text-anchor="middle" font-weight="bold">福利厚生・社食サービス</text>
</svg>
