<?xml version="1.0" encoding="UTF-8"?>
<svg version="1.1" xmlns="http://www.w3.org/2000/svg" width="267" height="67">
<path d="M0 0 C88.11 0 176.22 0 267 0 C267 22.11 267 44.22 267 67 C178.89 67 90.78 67 0 67 C0 44.89 0 22.78 0 0 Z " fill="#FDFEFE" transform="translate(0,0)"/>
<path d="M0 0 C1.3833605 2.76672101 0.67938379 4.22810123 0.00390625 7.2265625 C-0.22490234 8.2578125 -0.45371094 9.2890625 -0.68945312 10.3515625 C-0.93630859 11.43179687 -1.18316406 12.51203125 -1.4375 13.625 C-1.68048828 14.71296875 -1.92347656 15.8009375 -2.17382812 16.921875 C-2.77646436 19.61601348 -3.38543698 22.30856155 -4 25 C-2.99839844 24.566875 -1.99679688 24.13375 -0.96484375 23.6875 C0.37733144 23.12434957 1.71979497 22.56188599 3.0625 22 C3.71927734 21.71382812 4.37605469 21.42765625 5.05273438 21.1328125 C11.29309119 18.55059589 16.19165078 18.13006486 22.5859375 20.64453125 C24.18835282 21.35364607 25.78469413 22.07662913 27.375 22.8125 C28.19355469 23.16892578 29.01210937 23.52535156 29.85546875 23.89257812 C34.32739732 25.91347453 34.32739732 25.91347453 36 27 C36.495 28.485 36.495 28.485 37 30 C33.15757028 31.71517023 29.29953818 33.39200636 25.4375 35.0625 C24.35146484 35.54783203 23.26542969 36.03316406 22.14648438 36.53320312 C12.07587394 40.84917903 12.07587394 40.84917903 6 39 C3.5625 37.9375 3.5625 37.9375 2 37 C2 35.02 2 33.04 2 31 C2.66 30.67 3.32 30.34 4 30 C5.2684375 30.804375 5.2684375 30.804375 6.5625 31.625 C10.90985007 33.36394003 12.71951515 32.55686733 16.94921875 30.95703125 C19.23071307 29.95510095 19.23071307 29.95510095 22 28 C20.948125 27.484375 19.89625 26.96875 18.8125 26.4375 C18.22082031 26.14746094 17.62914063 25.85742188 17.01953125 25.55859375 C12.97949218 24.44113613 9.16275904 26.22080937 5.4609375 27.84765625 C4.63335937 28.20537109 3.80578125 28.56308594 2.953125 28.93164062 C1.2263861 29.6890511 -0.50017487 30.44686734 -2.2265625 31.20507812 C-3.0515625 31.56150391 -3.8765625 31.91792969 -4.7265625 32.28515625 C-5.47502441 32.61394775 -6.22348633 32.94273926 -6.99462891 33.28149414 C-9 34 -9 34 -12 34 C-11.69700746 27.12206938 -10.68094532 20.37512196 -9.375 13.625 C-9.24706055 12.85236816 -9.11912109 12.07973633 -8.98730469 11.28369141 C-8.07692499 6.87841195 -7.06957317 4.62629225 -3.3515625 1.9609375 C-1.69253906 0.99027344 -1.69253906 0.99027344 0 0 Z " fill="#3CC0CB" transform="translate(44,16)"/>
<path d="M0 0 C0.83920486 0.0028299 1.67840973 0.00565979 2.54304504 0.00857544 C5.22285228 0.01976865 7.90232506 0.04487149 10.58203125 0.0703125 C12.39908371 0.08034342 14.21614142 0.08946907 16.03320312 0.09765625 C20.487108 0.11970516 24.94076292 0.15422899 29.39453125 0.1953125 C28.79289464 2.83856254 28.06178825 4.93840879 26.9375 7.44921875 C25.26319875 11.26092584 24.44034271 15.04950991 23.70703125 19.1328125 C23.57748047 19.81666016 23.44792969 20.50050781 23.31445312 21.20507812 C23.00063527 22.86715048 22.69653959 24.53105377 22.39453125 26.1953125 C23.02101562 26.38867188 23.6475 26.58203125 24.29296875 26.78125 C25.11023438 27.04164062 25.9275 27.30203125 26.76953125 27.5703125 C27.98769531 27.95316406 27.98769531 27.95316406 29.23046875 28.34375 C31.39453125 29.1953125 31.39453125 29.1953125 33.39453125 31.1953125 C30.25938803 33.06146918 28.14749213 34.21133294 24.45703125 34.1328125 C20.66743027 32.97273057 17.76101278 31.28253105 14.39453125 29.1953125 C14.48384668 27.40284412 14.59199212 25.61131393 14.70703125 23.8203125 C14.76503906 22.82257812 14.82304688 21.82484375 14.8828125 20.796875 C15.54150215 16.16090665 17.04901654 11.68036152 18.39453125 7.1953125 C6.84453125 7.1953125 -4.70546875 7.1953125 -16.60546875 7.1953125 C-10.45314216 1.04298591 -8.25567305 -0.10447187 0 0 Z " fill="#3CC0CA" transform="translate(63.60546875,7.8046875)"/>
<path d="M0 0 C2.56314499 -0.08132187 5.12368418 -0.14064175 7.6875 -0.1875 C8.40873047 -0.21263672 9.12996094 -0.23777344 9.87304688 -0.26367188 C14.42695142 -0.32605413 17.48036769 0.00254821 21 3 C21.96140694 7.88715193 21.96140694 7.88715193 21 11 C18.8690356 13.50546557 16.71115562 15.06346027 14 17 C15.65 20.63 17.3 24.26 19 28 C16.69 28 14.38 28 12 28 C10.99539469 25.87717331 9.99644398 23.75166979 9 21.625 C8.443125 20.44164063 7.88625 19.25828125 7.3125 18.0390625 C6 15 6 15 6 13 C5.34 13 4.68 13 4 13 C4.061875 13.99 4.12375 14.98 4.1875 16 C4.21491645 20.46888211 2.7208227 23.91304608 1 28 C-0.98 28 -2.96 28 -5 28 C-4.2060351 21.97422428 -3.09159025 16.02869799 -1.9375 10.0625 C-1.75123047 9.09248047 -1.56496094 8.12246094 -1.37304688 7.12304688 C-0.91683597 4.74841064 -0.4591177 2.37407563 0 0 Z " fill="#3FC1CB" transform="translate(197,16)"/>
<path d="M0 0 C2.39652528 -0.08139142 4.79025436 -0.14067009 7.1875 -0.1875 C7.86103516 -0.21263672 8.53457031 -0.23777344 9.22851562 -0.26367188 C13.6663131 -0.32861525 16.56607005 0.10792592 20 3 C20.875948 7.93716143 20.875948 7.93716143 20 11 C18.1765221 13.19658145 16.41364888 14.39090075 14 16 C14.20496094 16.61488281 14.40992188 17.22976562 14.62109375 17.86328125 C15.74739583 21.2421875 16.87369792 24.62109375 18 28 C15.69 28 13.38 28 11 28 C8.69 23.38 6.38 18.76 4 14 C3.01 18.62 2.02 23.24 1 28 C-1.31 28 -3.62 28 -6 28 C-5.13469839 22.55581069 -4.07491678 17.15574089 -3 11.75 C-2.82210937 10.83992188 -2.64421875 9.92984375 -2.4609375 8.9921875 C-2.20183594 7.68894531 -2.20183594 7.68894531 -1.9375 6.359375 C-1.70353516 5.17553223 -1.70353516 5.17553223 -1.46484375 3.96777344 C-1 2 -1 2 0 0 Z " fill="#3EC1CB" transform="translate(168,16)"/>
<path d="M0 0 C2.05078125 0.03255208 4.1015625 0.06510417 6.15234375 0.09765625 C6.66127952 3.07553641 7.15965011 6.05458165 7.65234375 9.03515625 C7.79542969 9.86595703 7.93851563 10.69675781 8.0859375 11.55273438 C8.99963452 17.14368998 9.28954006 22.43259203 9.15234375 28.09765625 C7.17234375 28.09765625 5.19234375 28.09765625 3.15234375 28.09765625 C2.82234375 26.11765625 2.49234375 24.13765625 2.15234375 22.09765625 C-1.24721626 22.16781603 -4.52821934 22.32996889 -7.84765625 23.09765625 C-9.54648073 25.59525607 -9.54648073 25.59525607 -10.84765625 28.09765625 C-14.53515625 28.41015625 -14.53515625 28.41015625 -17.84765625 28.09765625 C-14.29715976 21.52575687 -10.68693061 14.98872492 -7.03515625 8.47265625 C-6.63820557 7.76173828 -6.24125488 7.05082031 -5.83227539 6.31835938 C-2.35227068 0.1243272 -2.35227068 0.1243272 0 0 Z " fill="#3BC0CA" transform="translate(237.84765625,15.90234375)"/>
<path d="M0 0 C1.11761719 0.01804687 2.23523438 0.03609375 3.38671875 0.0546875 C6.1337003 0.10164445 8.87890047 0.16730532 11.625 0.25 C10.965 2.23 10.305 4.21 9.625 6.25 C6.325 6.25 3.025 6.25 -0.375 6.25 C-0.49875 7.34441406 -0.6225 8.43882813 -0.75 9.56640625 C-1.40709252 14.81504841 -2.38159019 19.99369437 -3.375 25.1875 C-3.55289063 26.14462891 -3.73078125 27.10175781 -3.9140625 28.08789062 C-4.08679688 28.99603516 -4.25953125 29.90417969 -4.4375 30.83984375 C-4.59347656 31.66347412 -4.74945313 32.48710449 -4.91015625 33.33569336 C-5.375 35.25 -5.375 35.25 -6.375 36.25 C-8.37458364 36.29080783 -10.37545254 36.29254356 -12.375 36.25 C-12.70110795 29.40173312 -11.48685667 23.38910694 -9.875 16.75 C-9.51728516 15.23019531 -9.51728516 15.23019531 -9.15234375 13.6796875 C-8.56780569 11.20124613 -7.97249802 8.72534896 -7.375 6.25 C-11.005 6.25 -14.635 6.25 -18.375 6.25 C-18.375 5.59 -18.375 4.93 -18.375 4.25 C-12.9257292 -0.91246707 -7.16811924 -0.21951837 0 0 Z " fill="#45C3CC" transform="translate(127.375,7.75)"/>
<path d="M0 0 C4.95 0 9.9 0 15 0 C15 1.65 15 3.3 15 5 C12.03 5 9.06 5 6 5 C5.67 7.31 5.34 9.62 5 12 C8.63 12 12.26 12 16 12 C16 13.65 16 15.3 16 17 C9.73 17 3.46 17 -3 17 C-3 10.54170714 -1.79850205 6.14488199 0 0 Z " fill="#3FC1CB" transform="translate(139,27)"/>
<path d="M0 0 C0.94875 0.37125 1.8975 0.7425 2.875 1.125 C3.57625 1.41375 4.2775 1.7025 5 2 C4.67 4.31 4.34 6.62 4 9 C3.13375 8.690625 2.2675 8.38125 1.375 8.0625 C-6.17378361 5.68603109 -10.62805196 6.42127509 -18 9 C-18.1875 6.3125 -18.1875 6.3125 -17 3 C-11.51595346 -0.76447263 -6.21460362 -3.40323532 0 0 Z " fill="#41C1CB" transform="translate(66,23)"/>
<path d="M0 0 C2.875 1.5625 2.875 1.5625 5 3 C3.32126978 6.35746045 -0.05539731 7.00722941 -3.43359375 8.3046875 C-6.93592711 9.25356929 -8.79148768 8.60425616 -12 7 C-13.11375 6.62875 -14.2275 6.2575 -15.375 5.875 C-16.24125 5.58625 -17.1075 5.2975 -18 5 C-13.43490706 0.43490706 -6.19525011 -2.16113376 0 0 Z " fill="#F0F9FA" transform="translate(62,41)"/>
<path d="M0 0 C6.27 0 12.54 0 19 0 C18.34 1.65 17.68 3.3 17 5 C11.39 5 5.78 5 0 5 C0 3.35 0 1.7 0 0 Z " fill="#3DC1CB" transform="translate(141,16)"/>
<path d="M0 0 C2.31 0 4.62 0 7 0 C7.33 1.65 7.66 3.3 8 5 C4.5647952 7.29013653 3.014669 7.17842973 -1 7 C-0.67 4.69 -0.34 2.38 0 0 Z " fill="#F6FBFC" transform="translate(203,21)"/>
<path d="M0 0 C2.64 0 5.28 0 8 0 C8.1875 2.375 8.1875 2.375 8 5 C4.5647952 7.29013653 3.014669 7.17842973 -1 7 C-0.67 4.69 -0.34 2.38 0 0 Z " fill="#F8FCFC" transform="translate(173,21)"/>
<path d="M0 0 C0.33 0 0.66 0 1 0 C1 3.3 1 6.6 1 10 C-0.98 10 -2.96 10 -5 10 C-3.85017555 6.10828647 -2.70784225 3.06103907 0 0 Z " fill="#EDF8F9" transform="translate(238,23)"/>
</svg>
