<svg xmlns="http://www.w3.org/2000/svg" viewBox="0 0 800 450" width="800" height="450">
  <defs>
    <linearGradient id="bg" x1="0" y1="0" x2="1" y2="1">
      <stop offset="0%" stop-color="#e8f4fc"/><stop offset="100%" stop-color="#cce4f4"/>
    </linearGradient>
  </defs>
  <rect width="800" height="450" fill="url(#bg)"/>
  <!-- スマートフォン -->
  <rect x="200" y="60" width="160" height="290" rx="18" fill="#1a2a3a"/>
  <rect x="208" y="80" width="144" height="250" rx="4" fill="#2a4a6a"/>
  <rect x="248" y="68" width="64" height="6" rx="3" fill="#304050"/>
  <circle cx="280" cy="342" r="8" fill="#304050"/>
  <!-- 画面内容 -->
  <rect x="218" y="90" width="124" height="16" rx="3" fill="#00ccdd" opacity="0.7"/>
  <rect x="218" y="115" width="90" height="8" rx="2" fill="#60a0c0" opacity="0.6"/>
  <rect x="218" y="130" width="110" height="8" rx="2" fill="#60a0c0" opacity="0.5"/>
  <rect x="218" y="155" width="124" height="60" rx="4" fill="#1a3a5a"/>
  <rect x="218" y="225" width="56" height="20" rx="4" fill="#00ccdd"/>
  <!-- タブレット -->
  <rect x="420" y="100" width="220" height="170" rx="12" fill="#1a2a3a"/>
  <rect x="430" y="112" width="200" height="146" rx="4" fill="#2a4a6a"/>
  <rect x="518" y="106" width="24" height="4" rx="2" fill="#304050"/>
  <!-- 画面内容 -->
  <rect x="440" y="122" width="180" height="12" rx="2" fill="#00ccdd" opacity="0.7"/>
  <rect x="440" y="142" width="140" height="8" rx="2" fill="#60a0c0" opacity="0.5"/>
  <rect x="440" y="158" width="180" height="50" rx="3" fill="#1a3a5a"/>
  <rect x="440" y="216" width="70" height="18" rx="3" fill="#00ccdd"/>
  <!-- au ロゴ風 -->
  <rect x="530" y="320" width="80" height="36" rx="6" fill="#ff6600"/>
  <text x="570" y="344" font-family="sans-serif" font-size="18" font-weight="900" fill="white" text-anchor="middle">au</text>
  <!-- ラベル -->
  <rect x="0" y="390" width="800" height="60" fill="rgba(0,112,128,0.75)"/>
  <text x="400" y="422" font-family="sans-serif" font-size="16" fill="white" text-anchor="middle" font-weight="bold">法人携帯・タブレットプラン</text>
</svg>
